# xmcd
#
# Track frame offsets:
#	150
#	17379
#	32140
#	49217
#	68720
#	89778
#	107311
#	127345
#	148065
#	185981
#	204909
#	219685
#	231234
#	246798
#	259804
#
# Disc length: 3679 seconds
#
# Revision: 1
# Processed by: cddbd v1.5.2PL0 Copyright (c) Steve Scherf et al.
# Submitted via: audiograbber 1.83.01
#
DISCID=e40e5d0f
DTITLE=Various Artist - CBE 122
DYEAR=1900
DGENRE=
TTITLE0=Y M C A 
TTITLE1=LET ME BE THERE
TTITLE2=CROCODILLE ROCK
TTITLE3=MARGARITAVILLE
TTITLE4=THATS WHAT FRIENDS ARE FOR
TTITLE5=SUNDOWN
TTITLE6=WHITE WEDDING
TTITLE7=YOUR SO  VAIN
TTITLE8=AMERICAN PIE
TTITLE9=ME AND  BOBBY MCGEE
TTITLE10=BAD, BAD LEROY BROWN
TTITLE11=I WANT TO HOLD YOUR HAND
TTITLE12=PHYSICAL
TTITLE13=WHY DONT WE GET DRUNK
TTITLE14=TIE A YELLOW RIBBON AROUND THE OLD OAK TREE
EXTD=
EXTT0=
EXTT1=
EXTT2=
EXTT3=
EXTT4=
EXTT5=
EXTT6=
EXTT7=
EXTT8=
EXTT9=
EXTT10=
EXTT11=
EXTT12=
EXTT13=
EXTT14=
PLAYORDER=
